<svg width="61" height="61" viewBox="0 0 61 61" fill="none" xmlns="http://www.w3.org/2000/svg">
<path d="M9.40413 6.98959L9.46004 33.4738L12.1034 33.5297L8.18921 47.5393L28.8402 49.0974L28.06 56.5521L30.3322 54.1731L32.884 56.3843L32.119 49.3071L52.8107 47.4783L48.8457 33.6415H51.428L51.5399 7.04551L9.40413 6.98959Z" stroke="#002651" stroke-linecap="round" stroke-linejoin="round"/>
<path d="M15.4127 32.7926C21.8838 29.4109 26.0725 32.7036 30.3323 35.7968C35.3394 31.5472 40.349 29.7654 45.3586 32.9044L48.5916 45.0993C42.8538 43.8488 37.1541 43.0889 31.8624 47.1987L30.4441 37.3828L29.0259 47.3665C24.6364 44.9214 20.4986 42.1179 12.2966 45.0993L15.4127 32.7926ZM12.8609 10.2175L12.9219 30.4085L47.9105 30.4644L47.9664 10.1057L12.8609 10.2175Z" stroke="#005CA4" stroke-linecap="round" stroke-linejoin="round"/>
<path d="M30.5001 21.2788L31.9743 22.9258M29.0259 47.3665L28.8391 49.0923M31.8624 47.1987L32.1191 49.3083M27.4958 17.4816L29.4224 22.0159L31.41 20.374L27.4958 17.4816Z" stroke="#002651" stroke-linecap="round" stroke-linejoin="round"/>
</svg>
