<svg width="34" height="35" viewBox="0 0 34 35" fill="none" xmlns="http://www.w3.org/2000/svg">
<path d="M26.7276 8.45876C25.5215 7.20409 24.0849 6.20929 22.5016 5.53239C20.9183 4.85549 19.2199 4.51004 17.5056 4.51619C10.3227 4.51619 4.46853 10.5452 4.46853 17.9426C4.46853 20.3136 5.07368 22.6168 6.20505 24.649L4.36328 31.6129L11.2699 29.7432C13.1775 30.8135 15.3218 31.3826 17.5056 31.3826C24.6885 31.3826 30.5427 25.3536 30.5427 17.9562C30.5427 14.3658 29.1877 10.9923 26.7276 8.45876ZM17.5056 29.1064C15.5586 29.1064 13.6511 28.5645 11.9803 27.5484L11.5856 27.3045L7.48113 28.4155L8.57304 24.2968L8.30993 23.8768C7.22821 22.0978 6.65384 20.0416 6.65234 17.9426C6.65234 11.7917 11.5199 6.77877 17.4925 6.77877C20.3867 6.77877 23.1098 7.94393 25.1489 10.0575C26.1586 11.0925 26.9587 12.3236 27.503 13.6795C28.0472 15.0354 28.3247 16.489 28.3194 17.9562C28.3457 24.1071 23.4782 29.1064 17.5056 29.1064ZM23.4519 20.7607C23.123 20.5981 21.518 19.7852 21.2286 19.6632C20.926 19.5549 20.7155 19.5007 20.4919 19.8258C20.2683 20.1645 19.65 20.9232 19.4658 21.14C19.2816 21.3703 19.0843 21.3974 18.7554 21.2213C18.4265 21.0587 17.3741 20.6929 16.1374 19.5549C15.1639 18.6607 14.5193 17.5633 14.322 17.2245C14.1378 16.8858 14.2957 16.7097 14.4667 16.5336C14.6114 16.3845 14.7956 16.1407 14.9534 15.951C15.1113 15.7613 15.1771 15.6123 15.2823 15.3955C15.3876 15.1652 15.335 14.9755 15.256 14.8129C15.1771 14.6504 14.5193 12.9975 14.2562 12.32C13.9931 11.6697 13.7168 11.751 13.5195 11.7375H12.888C12.6644 11.7375 12.3223 11.8188 12.0198 12.1575C11.7304 12.4962 10.8884 13.3091 10.8884 14.962C10.8884 16.6149 12.0592 18.2136 12.2171 18.4303C12.375 18.6607 14.5193 22.0478 17.7819 23.4974C18.558 23.8497 19.1632 24.0529 19.6368 24.2019C20.413 24.4594 21.1234 24.4187 21.6891 24.3374C22.3205 24.2426 23.6229 23.5245 23.886 22.7387C24.1623 21.9529 24.1623 21.289 24.0702 21.14C23.9781 20.991 23.7808 20.9232 23.4519 20.7607Z" fill="white"/>
</svg>
